<?xml version="1.0" encoding="utf-8"?>
<svg viewBox="258.232 38.999 194.326 194.421" xmlns="http://www.w3.org/2000/svg" xmlns:bx="https://boxy-svg.com">
  <defs>
    <linearGradient id="color-0" gradientUnits="userSpaceOnUse" bx:pinned="true">
      <stop style="stop-color: rgb(119, 136, 119);"/>
    </linearGradient>
  </defs>
  <path d="M 355.395 136.209 m -97.163 0 a 97.163 97.163 0 1 0 194.326 0 a 97.163 97.163 0 1 0 -194.326 0 Z M 355.395 136.209 m -67.211 0 a 67.211 67.211 0 0 1 134.422 0 a 67.211 67.211 0 0 1 -134.422 0 Z" style="fill: url(#color-0);" bx:shape="ring 355.395 136.209 67.211 67.211 97.163 97.163 1@abfd87dd"/>
  <path d="M 355.264 137.444 m -44.568 0 a 44.568 44.568 0 1 0 89.136 0 a 44.568 44.568 0 1 0 -89.136 0 Z M 355.264 137.444 m -17.438 0 a 17.438 17.438 0 0 1 34.876 0 a 17.438 17.438 0 0 1 -34.876 0 Z" style="fill: url(#color-0);" bx:shape="ring 355.264 137.444 17.438 17.438 44.568 44.568 1@a7af0741"/>
</svg>
